Coordinates
version=1
nRows=21
nColumns=19
inDegrees=yes

Units are S.I. units (second, meters, Newtons, ...)
If the header above contains a line with 'inDegrees', this indicates whether rotational values are in degrees (yes) or radians (no).

endheader
time	pelvis_to_ground_rx	pelvis_to_ground_ry	pelvis_to_ground_rz	pelvis_to_ground_tx	pelvis_to_ground_ty	pelvis_to_ground_tz	left_hip_abduction	left_hip_rotation	left_hip_flexion	left_knee_flexion	left_ankle_flexion	left_subtalar_angle	right_hip_abduction	right_hip_rotation	right_hip_flexion	right_knee_flexion	right_ankle_flexion	right_subtalar_angle
      0.00000000	     96.01782291	     14.26070830	     -1.08010461	     -1.90650372	     -0.76441964	      0.71959055	    -15.09757318	    -12.21180964	     -9.68769393	    -28.88933117	      6.54015161	     -3.64082800	     -2.87813724	     -4.98752398	     29.36507006	    -19.99044111	    -10.70306401	     -3.03253624
      0.01000000	     95.26900075	     14.69511209	     -1.74655152	     -1.89259688	     -0.76432736	      0.71953382	    -13.65334277	    -10.86251490	     -7.69468492	    -32.39647445	      5.22689344	     -3.35545431	     -2.13477003	     -4.12694877	     28.69076132	    -19.70787378	     -9.27095588	     -3.80583567
      0.02000000	     94.44126077	     15.12933335	     -2.09324255	     -1.87868935	     -0.76428574	      0.71927736	    -12.21105525	     -9.50028103	     -6.09399876	    -35.73005941	      3.67665801	     -2.88442824	     -1.25491479	     -3.37085744	     27.77116429	    -19.48412594	     -7.75391474	     -4.68421569
      0.03000000	     93.55915218	     15.50607171	     -2.36541923	     -1.86493100	     -0.76433493	      0.71907676	    -10.76123221	     -8.18302711	     -4.56740896	    -38.93474699	      2.07017858	     -2.45613636	     -0.30850335	     -2.51768372	     26.79918213	    -19.19672407	     -6.40666977	     -5.42990100
      0.04000000	     92.63240047	     15.79474245	     -2.52718678	     -1.85138609	     -0.76447280	      0.71901215	     -9.30077327	     -6.80913431	     -3.08423808	    -42.06499810	      0.33697730	     -2.08385311	      0.72101666	     -1.66908716	     25.76535305	    -18.87375768	     -5.18123687	     -6.06624869
      0.05000000	     91.67381589	     15.97149832	     -2.61676944	     -1.83811641	     -0.76470920	      0.71916770	     -7.84002949	     -5.34810122	     -1.56391698	    -45.15957851	     -1.47670620	     -1.77902295	      1.82178914	     -0.84902687	     24.70312730	    -18.50031108	     -4.11347980	     -6.57106432
      0.06000000	     90.70158369	     16.02079730	     -2.66843415	     -1.82516848	     -0.76505191	      0.71959594	     -6.40046182	     -3.78177392	      0.04902486	    -48.23349476	     -3.33046739	     -1.57704812	      2.97572183	     -0.09232065	     23.63360800	    -18.05618668	     -3.22047407	     -6.92537252
      0.07000000	     89.73848784	     15.93303416	     -2.72673535	     -1.81257072	     -0.76550366	      0.72032187	     -5.01693396	     -2.11539834	      1.79997744	    -51.28458084	     -5.09816271	     -1.47292707	      4.15176937	      0.59404659	     22.58310152	    -17.52318068	     -2.52809481	     -7.12209506
      0.08000000	     88.80640671	     15.71945747	     -2.81447744	     -1.80033552	     -0.76606868	      0.72134704	     -3.72821170	     -0.38634801	      3.69798336	    -54.28927868	     -6.70538804	     -1.46397333	      5.31817619	      1.19715194	     21.55074467	    -16.88213433	     -2.02986750	     -7.16125987
      0.09000000	     87.93333856	     15.39316994	     -2.94609822	     -1.78846602	     -0.76673353	      0.72264798	     -2.57601438	      1.38454010	      5.74158910	    -57.21870320	     -8.09258806	     -1.51560583	      6.43895718	      1.70892122	     20.53591135	    -16.13312098	     -1.70987970	     -7.05875817
      0.10000000	     87.14443259	     14.96103184	     -3.12538835	     -1.77694384	     -0.76748524	      0.72417748	     -1.60075215	      3.15955527	      7.90636460	    -60.02972751	     -9.16851428	     -1.67276994	      7.47945811	      2.14119119	     19.53203982	    -15.28521542	     -1.54788288	     -6.79997164
      0.11000000	     86.44251758	     14.44696599	     -3.31001994	     -1.76573685	     -0.76831934	      0.72587396	     -0.80570155	      4.90440437	     10.13479771	    -62.69057641	     -9.50687532	     -1.83301968	      8.42337019	      2.53948138	     18.48189286	    -14.33598607	     -1.51631156	     -6.61202167
      0.12000000	     85.88015495	     13.87047800	     -3.57023021	     -1.75485244	     -0.76919474	      0.72770093	     -0.25853748	      6.57374752	     12.47853687	    -65.15374059	     -9.84511602	     -1.98230041	      9.21231777	      2.90023464	     17.47955852	    -13.35478315	     -1.56040679	     -6.32018427
      0.13000000	     85.47531166	     13.25369399	     -3.90724550	     -1.74426694	     -0.77007461	      0.72958942	      0.01525772	      8.11737353	     14.92343088	    -67.38463885	    -10.18806510	     -2.36099078	      9.84577319	      3.11861220	     16.57490909	    -12.43542476	     -1.79215006	     -5.44233563
      0.14000000	     85.15901555	     12.62440387	     -4.16246826	     -1.73389223	     -0.77099050	      0.73148908	      0.12980985	      9.51770899	     17.30356409	    -69.35870984	    -10.01052399	     -2.62382073	     10.33897394	      3.52086123	     15.52592647	    -11.44503871	     -1.80521427	     -5.15722774
      0.15000000	     85.00080071	     11.99190510	     -4.47438188	     -1.72377619	     -0.77183722	      0.73333481	     -0.01694140	     10.72132050	     19.74693407	    -71.05869757	     -9.18808623	     -3.22491771	     10.67089056	      3.79047300	     14.61382278	    -10.63222148	     -2.00917501	     -4.38760328
      0.16000000	     84.94654915	     11.37418540	     -4.76589273	     -1.71385188	     -0.77264503	      0.73511801	     -0.33059225	     11.72375371	     22.16861713	    -72.46025645	     -8.36902286	     -3.74238279	     10.85699516	      4.20588105	     13.69243749	     -9.87960510	     -2.08465256	     -3.83798345
      0.17000000	     84.98088408	     10.77845791	     -5.03434212	     -1.70409889	     -0.77337796	      0.73681050	     -0.77991348	     12.51346054	     24.55291770	    -73.55150902	     -7.77881176	     -4.11332381	     10.91073995	      4.81535226	     12.76841491	     -9.20296775	     -2.12458510	     -3.53964745
      0.18000000	     85.08886313	     10.23080167	     -5.24456881	     -1.69451403	     -0.77398848	      0.73830650	     -1.32685139	     13.05064620	     26.85682255	    -74.35882669	     -6.24329341	     -4.98422699	     10.90930692	      5.21565229	     11.92771563	     -8.78836983	     -2.22995577	     -3.04770500
      0.19000000	     85.25451403	      9.70323287	     -5.44653823	     -1.68507097	     -0.77447079	      0.73966502	     -1.94530149	     13.38692110	     29.11230201	    -74.85514948	     -5.09270907	     -5.69200667	     10.81670610	      5.78591781	     11.12777619	     -8.48989117	     -2.20496170	     -2.71939700
      0.20000000	     85.43932773	      9.22871556	     -5.61202094	     -1.67574054	     -0.77483471	      0.74084629	     -2.56632749	     13.48827784	     31.28197021	    -75.06124197	     -3.97320772	     -6.43374739	     10.70111361	      6.37307724	     10.35552971	     -8.30867563	     -2.13907801	     -2.47751472
